<?xml version="1.0" encoding="UTF-8"?>
<svg width="32px" height="32px" viewBox="0 0 32 32" version="1.1" xmlns="http://www.w3.org/2000/svg">
    <title>Favicon</title>
    <g stroke="none" stroke-width="1" fill="none" fill-rule="evenodd">
        <circle fill="#5A6EEB" cx="16" cy="16" r="16"/>
        <path d="M9.33333333,18.6666667 C11.5425519,18.6666667 13.3333333,16.8758853 13.3333333,14.6666667 C13.3333333,12.4574481 11.5425519,10.6666667 9.33333333,10.6666667 C7.12411479,10.6666667 5.33333333,12.4574481 5.33333333,14.6666667 C5.33333333,16.8758853 7.12411479,18.6666667 9.33333333,18.6666667 Z M22.6666667,18.6666667 C24.8758853,18.6666667 26.6666667,16.8758853 26.6666667,14.6666667 C26.6666667,12.4574481 24.8758853,10.6666667 22.6666667,10.6666667 C20.4574481,10.6666667 18.6666667,12.4574481 18.6666667,14.6666667 C18.6666667,16.8758853 20.4574481,18.6666667 22.6666667,18.6666667 Z M16,26.6666667 C19.6818983,26.6666667 22.6666667,23.6818983 22.6666667,20 C22.6666667,16.3181017 19.6818983,13.3333333 16,13.3333333 C12.3181017,13.3333333 9.33333333,16.3181017 9.33333333,20 C9.33333333,23.6818983 12.3181017,26.6666667 16,26.6666667 Z" fill="#FFFFFF" fill-rule="nonzero"/>
    </g>
</svg>
